<!-- public/handshake.svg -->
<svg version="1.1" id="Layer_1" xmlns="http://www.w3.org/2000/svg" xmlns:xlink="http://www.w3.org/1999/xlink" viewBox="0 0 64 64" xml:space="preserve" width="64px" height="64px">
  <path d="M32.9,21.4c-1.4-1.4-3.3-2.1-5.2-2.1s-3.8,0.7-5.2,2.1c-1.4,1.4-2.1,3.3-2.1,5.2s0.7,3.8,2.1,5.2c1.4,1.4,3.3,2.1,5.2,2.1
    s3.8-0.7,5.2-2.1c1.4-1.4,2.1-3.3,2.1-5.2S34.3,22.8,32.9,21.4z M50.9,22.5c-1.4-1.4-3.3-2.1-5.2-2.1c-1.9,0-3.8,0.7-5.2,2.1
    c-1.4,1.4-2.1,3.3-2.1,5.2s0.7,3.8,2.1,5.2c1.4,1.4,3.3,2.1,5.2,2.1c1.9,0,3.8-0.7,5.2-2.1c1.4-1.4,2.1-3.3,2.1-5.2
    S52.3,23.9,50.9,22.5z M44.1,46.6c-1.3-1.3-3.2-2-5.1-2c-1.9,0-3.7,0.7-5.1,2c-1.3,1.3-2,3.2-2,5.1c0,1.9,0.7,3.7,2,5.1
    c1.3,1.3,3.2,2,5.1,2c1.9,0,3.7-0.7,5.1-2c1.3-1.3,2-3.2,2-5.1C46.1,49.8,45.4,47.9,44.1,46.6z M29.6,37.9c-1.3-1.3-3.2-2-5.1-2
    s-3.7,0.7-5.1,2c-1.3,1.3-2,3.2-2,5.1c0,1.9,0.7,3.7,2,5.1c1.3,1.3,3.2,2,5.1,2s3.7-0.7,5.1-2c1.3-1.3,2-3.2,2-5.1
    C31.6,41.1,30.9,39.2,29.6,37.9z"/>
</svg>
